# xmcd
#
# Track frame offsets:
# 150
# 13741
# 27070
# 38810
# 51050
# 63730
# 74988
# 85481
# 95134
# 108028
# 120230
# 133566
# 145834
# 157407
# 172526
# 186243
# 203736
# 221102
# 239495
# 251793
#
# Disc length: 3584 seconds
#
# Revision: 1
# Processed by: cddbd v1.5.1PL0 Copyright (c) Steve Scherf et al.
# Submitted via: CedeCatalogueitor 2.6.0.5 http://personales.ya.com/cdcatalogueitor
#
DISCID=290dfe14
DTITLE=VARIOS - LOS VEINTE DEL SIGLO VEINTE (COUNTRY)
DYEAR=1999
DGENRE=
TTITLE0=MERLE TRAVIS  "Divorce Me C.O.D."
TTITLE1=TEX WILLIAMS AND HIS WESTERN CARAVAN  "smoke! Smoke...
TTITLE2=TENNESSEE ERNIE FORD  "The Shot Gun Boogie"
TTITLE3=HANK THOMPSON AND HIS BRAZOS.."The Wild Side Of Life"
TTITLE4=TEX RITTER  "High Moon (Do Not Forsake Me)
TTITLE5=SONNY JAMES  "Young Love"
TTITLE6=FERLIN HUSKY  "Wings Of A Dove"
TTITLE7=ROSE MADDOX  "Sing A Little Song Of Heartache"
TTITLE8=WILLIE NELSON  "Crazy"
TTITLE9=ROY CLARK  "Tips Of My Fingers"
TTITLE10=GLEN CAMPBELL  "Gentle On My Mind"
TTITLE11=MERLE HAGGARD and THE STRANGERS  "Okie From Muskogee"
TTITLE12=B. GENTRY and G. CAMPBELL  "All I Have To Do Is Dream"
TTITLE13=JESSI COLTER  "I'm Not Lisa"
TTITLE14=ASLEEP AT THE WHEEL  "Milles And Miles Of Texas"
TTITLE15=GENE WATSON  "Paper Rosie"
TTITLE16=DON SCHLITZ  "the Gambler"
TTITLE17=JUICE NEWTON  "The Sweetest Thing (I've Ever Known)
TTITLE18=SAWYER BROWN  "Step That Step"
TTITLE19=DON WILLIAMS  "Heartbeat In The Darkness"
EXTD=
EXTT0=
EXTT1=
EXTT2=
EXTT3=
EXTT4=
EXTT5=
EXTT6=
EXTT7=
EXTT8=
EXTT9=
EXTT10=
EXTT11=
EXTT12=
EXTT13=
EXTT14=
EXTT15=
EXTT16=
EXTT17=
EXTT18=
EXTT19=
PLAYORDER=
